<svg width="52" height="51" viewBox="0 0 52 51" fill="none" xmlns="http://www.w3.org/2000/svg">
<path d="M11.9165 34C11.9165 33.8605 11.8885 33.7223 11.834 33.5934C11.7796 33.4645 11.6998 33.3474 11.5992 33.2487C11.4986 33.15 11.3792 33.0718 11.2477 33.0184C11.1163 32.965 10.9754 32.9375 10.8332 32.9375H6.49984C6.35757 32.9375 6.2167 32.965 6.08526 33.0184C5.95383 33.0718 5.8344 33.15 5.7338 33.2487C5.63321 33.3474 5.55341 33.4645 5.49897 33.5934C5.44453 33.7223 5.4165 33.8605 5.4165 34V40.375C5.4165 40.6568 5.53064 40.927 5.7338 41.1263C5.93697 41.3256 6.21252 41.4375 6.49984 41.4375H10.8332C10.9754 41.4375 11.1163 41.41 11.2477 41.3566C11.3792 41.3032 11.4986 41.225 11.5992 41.1263C11.6998 41.0276 11.7796 40.9105 11.834 40.7816C11.8885 40.6527 11.9165 40.5145 11.9165 40.375V34ZM46.5832 34C46.5832 33.8605 46.5551 33.7223 46.5007 33.5934C46.4463 33.4645 46.3665 33.3474 46.2659 33.2487C46.1653 33.15 46.0458 33.0718 45.9144 33.0184C45.783 32.965 45.6421 32.9375 45.4998 32.9375H41.1665C41.0242 32.9375 40.8834 32.965 40.7519 33.0184C40.6205 33.0718 40.5011 33.15 40.4005 33.2487C40.2999 33.3474 40.2201 33.4645 40.1656 33.5934C40.1112 33.7223 40.0832 33.8605 40.0832 34V40.375C40.0832 40.5145 40.1112 40.6527 40.1656 40.7816C40.2201 40.9105 40.2999 41.0276 40.4005 41.1263C40.5011 41.225 40.6205 41.3032 40.7519 41.3566C40.8834 41.41 41.0242 41.4375 41.1665 41.4375H45.4998C45.7872 41.4375 46.0627 41.3256 46.2659 41.1263C46.469 40.927 46.5832 40.6568 46.5832 40.375V34Z" fill="#455A64"/>
<path d="M47.6667 21.25H4.33333C4.04602 21.25 3.77047 21.3619 3.5673 21.5612C3.36414 21.7605 3.25 22.0307 3.25 22.3125V24.4375C3.25 24.7193 3.36414 24.9895 3.5673 25.1888C3.77047 25.3881 4.04602 25.5 4.33333 25.5H47.6667C47.954 25.5 48.2295 25.3881 48.4327 25.1888C48.6359 24.9895 48.75 24.7193 48.75 24.4375V22.3125C48.75 22.0307 48.6359 21.7605 48.4327 21.5612C48.2295 21.3619 47.954 21.25 47.6667 21.25Z" fill="#212121"/>
<path d="M44.4165 24.4375L42.2498 23.3803C41.888 23.3771 10.1095 23.375 9.74984 23.375L7.58317 24.4375C6.38717 24.4375 5.4165 26.452 5.4165 27.625V36.125C5.4165 36.2645 5.44453 36.4027 5.49897 36.5316C5.55341 36.6605 5.63321 36.7776 5.7338 36.8763C5.8344 36.975 5.95383 37.0532 6.08526 37.1066C6.2167 37.16 6.35757 37.1875 6.49984 37.1875H45.4998C45.6421 37.1875 45.783 37.16 45.9144 37.1066C46.0458 37.0532 46.1653 36.975 46.2659 36.8763C46.3665 36.7776 46.4463 36.6605 46.5007 36.5316C46.5551 36.4027 46.5832 36.2645 46.5832 36.125V27.625C46.5832 26.452 45.6125 24.4375 44.4165 24.4375Z" fill="#212121"/>
<path d="M43.1017 24.4396C42.9468 23.4961 42.6868 22.0139 42.2502 19.6562C41.1669 13.8125 39.0977 9.5625 35.2085 9.5625H16.7919C12.9027 9.5625 10.7653 14.3437 9.7502 19.6562C9.3082 21.9682 9.04603 23.4738 8.89111 24.4396H43.1017Z" fill="#212121"/>
<path d="M44.4168 32.9375C44.4168 33.077 44.3888 33.2152 44.3344 33.3441C44.2799 33.473 44.2001 33.5901 44.0995 33.6888C43.9989 33.7875 43.8795 33.8657 43.7481 33.9191C43.6166 33.9725 43.4758 34 43.3335 34H8.66683C8.52456 34 8.38369 33.9725 8.25226 33.9191C8.12082 33.8657 8.00139 33.7875 7.9008 33.6888C7.8002 33.5901 7.7204 33.473 7.66596 33.3441C7.61152 33.2152 7.5835 33.077 7.5835 32.9375V29.75C7.5835 29.6105 7.61152 29.4723 7.66596 29.3434C7.7204 29.2145 7.8002 29.0974 7.9008 28.9987C8.00139 28.9 8.12082 28.8218 8.25226 28.7684C8.38369 28.715 8.52456 28.6875 8.66683 28.6875H43.3335C43.4758 28.6875 43.6166 28.715 43.7481 28.7684C43.8795 28.8218 43.9989 28.9 44.0995 28.9987C44.2001 29.0974 44.2799 29.2145 44.3344 29.3434C44.3888 29.4723 44.4168 29.6105 44.4168 29.75V32.9375Z" fill="#212121"/>
<path d="M8.6665 31.3438C8.6665 31.7664 8.83771 32.1718 9.14245 32.4707C9.4472 32.7696 9.86053 32.9375 10.2915 32.9375C10.7225 32.9375 11.1358 32.7696 11.4406 32.4707C11.7453 32.1718 11.9165 31.7664 11.9165 31.3438C11.9165 30.9211 11.7453 30.5157 11.4406 30.2168C11.1358 29.9179 10.7225 29.75 10.2915 29.75C9.86053 29.75 9.4472 29.9179 9.14245 30.2168C8.83771 30.5157 8.6665 30.9211 8.6665 31.3438Z" fill="white"/>
<path d="M40.0835 31.3438C40.0835 31.7664 40.2547 32.1718 40.5594 32.4707C40.8642 32.7696 41.2775 32.9375 41.7085 32.9375C42.1395 32.9375 42.5528 32.7696 42.8575 32.4707C43.1623 32.1718 43.3335 31.7664 43.3335 31.3438C43.3335 30.9211 43.1623 30.5157 42.8575 30.2168C42.5528 29.9179 42.1395 29.75 41.7085 29.75C41.2775 29.75 40.8642 29.9179 40.5594 30.2168C40.2547 30.5157 40.0835 30.9211 40.0835 31.3438Z" fill="white"/>
<path d="M40.1179 20.0356C39.1603 14.875 37.7584 11.6875 35.2083 11.6875H16.7916C14.4213 11.6875 12.7995 15.2352 11.8798 20.0483C11.6665 21.1556 11.4621 22.2646 11.2666 23.375H40.7224C40.5751 22.5324 40.379 21.4476 40.1179 20.0356Z" fill="#E3F2FD"/>
<path d="M17.8752 22.3125C15.7843 22.3125 14.0835 20.6465 14.0835 18.5938C14.0835 16.541 15.7843 14.875 17.8752 14.875C19.966 14.875 21.6668 16.541 21.6668 18.5938C21.6668 20.6465 19.966 22.3125 17.8752 22.3125ZM33.0418 22.3125C30.951 22.3125 29.2502 20.6465 29.2502 18.5938C29.2502 16.541 30.951 14.875 33.0418 14.875C35.1327 14.875 36.8335 16.541 36.8335 18.5938C36.8335 20.6465 35.1327 22.3125 33.0418 22.3125Z" fill="#81A3A7"/>
<path d="M25.4583 18.5938C23.9655 18.5938 22.75 17.4027 22.75 15.9375C22.75 14.4723 23.9655 13.2812 25.4583 13.2812C26.9512 13.2812 28.1667 14.4723 28.1667 15.9375C28.1667 17.4027 26.9512 18.5938 25.4583 18.5938Z" fill="#81A3A7"/>
</svg>
